#!OML:ASF E:\Steps\Project 1\Capture day 1\Session 2\Subject.ASF
:FULLY-SPECIFIED
:DEGREES
128
root 16.6142 19.6468 20.7116 -155.705 -3.98338 177.931
lowerback -27.0427 -1.27712 -5.73338
upperback 0.43456 -0.180323 0.0103289
thorax 14.9863 -0.639619 3.05907
lowerneck -3.29308 -0.0508318 -0.754917
upperneck 21.5432 -2.31623 3.48909
head 7.16494 -1.4902 1.0203
rclavicle 7.25564e-015 -3.97569e-016
rhumerus -32.8549 -14.9652 -78.8486
rradius 32.6784
rwrist -2.60615
rhand -8.68919 -49.7055
rfingers 7.12502
rthumb 17.2456 -78.9603
lclavicle 7.25564e-015 -3.97569e-016
lhumerus -26.9277 -2.0046 83.9599
lradius 26.3683
lwrist -1.06216
lhand -21.6178 -11.787
lfingers 7.12502
lthumb 4.77778 18.1392
rfemur -24.4051 5.69739 20.3289
rtibia 12.6066
rfoot -22.1829 -5.95786
rtoes -13.8955
lfemur -27.5084 -9.82336 -21.4156
ltibia 19.7762
lfoot -11.4185 -1.05303
ltoes -21.1012
129
root 16.6085 19.6474 20.7177 -155.824 -4.24014 177.694
lowerback -26.7777 -1.30942 -5.79591
upperback 0.553241 -0.189382 -0.045287
thorax 14.9966 -0.641149 3.03379
lowerneck -3.53024 -0.181559 -0.752153
upperneck 21.6933 -2.52636 3.56844
head 7.26256 -1.57999 1.02836
rclavicle 4.01297e-015 2.01766e-014
rhumerus -32.7546 -14.8918 -78.7948
rradius 32.6485
rwrist -3.01501
rhand -7.61939 -55.0004
rfingers 7.12502
rthumb 18.275 -84.1619
lclavicle 4.01297e-015 2.01766e-014
lhumerus -26.7821 -1.98089 83.8961
lradius 26.315
lwrist -1.16157
lhand -21.4036 -12.3095
lfingers 7.12502
lthumb 4.98461 17.6118
rfemur -24.3403 5.81443 20.0386
rtibia 12.847
rfoot -22.1402 -6.4845
rtoes -14.5927
lfemur -27.9765 -9.9486 -21.6713
ltibia 20.8973
lfoot -11.5965 -1.34312
ltoes -21.517
130
root 16.6038 19.648 20.7304 -155.831 -4.51142 177.513
lowerback -26.5505 -1.31076 -5.78537
upperback 0.263848 -0.187777 -0.176767
thorax 15.2965 -0.64954 3.02581
lowerneck -3.91894 -0.586745 -0.510471
upperneck 21.9047 -3.11173 3.44411
head 7.41243 -1.84412 0.898937
rclavicle 1.44119e-015 -1.02871e-014
rhumerus -32.7793 -14.9134 -78.738
rradius 32.6527
rwrist -3.16398
rhand -8.47558 -51.9966
rfingers 7.12502
rthumb 17.4512 -81.2332
lclavicle 1.44119e-015 -1.02871e-014
lhumerus -26.7881 -2.3065 83.8446
lradius 26.5192
lwrist -0.976455
lhand -21.0266 -12.1253
lfingers 7.12502
lthumb 5.34868 17.7872
rfemur -24.5238 5.67133 19.8438
rtibia 13.238
rfoot -22.2113 -6.73232
rtoes -14.9397
lfemur -28.6741 -9.96058 -21.8306
ltibia 22.1475
lfoot -11.6262 -1.89433
ltoes -19.5684
131
root 16.5974 19.6509 20.745 -155.83 -4.73426 177.448
lowerback -26.3012 -1.25841 -5.64588
upperback 0.289585 -0.162894 -0.224514
thorax 15.1838 -0.618825 2.89996
lowerneck -3.17787 -0.00679332 -0.717991
upperneck 21.6751 -2.34643 3.7541
head 7.19106 -1.48859 1.09798
rclavicle 5.889e-015 -6.85807e-015
rhumerus -32.8657 -15.0203 -78.6056
rradius 32.6505
rwrist -2.88544
rhand -8.45374 -51.0052
rfingers 7.12502
rthumb 17.4722 -80.24
lclavicle 5.889e-015 -6.85807e-015
lhumerus -26.8788 -2.75604 83.8285
lradius 26.774
lwrist -0.626725
lhand -21.0259 -11.9013
lfingers 7.12502
lthumb 5.34932 18.0111
rfemur -24.7575 5.47771 19.7821
rtibia 13.654
rfoot -22.3043 -6.79961
rtoes -14.6951
lfemur -29.359 -10.0279 -21.8512
ltibia 23.3589
lfoot -11.5953 -2.16332
ltoes -19.5908
132
root 16.588 19.647 20.7571 -155.617 -4.73957 177.488
lowerback -26.3255 -1.12369 -5.41687
upperback 0.252326 -0.054645 -0.255562
thorax 15.1407 -0.550862 2.77346
lowerneck -3.20041 -0.0289641 -0.654056
upperneck 21.9912 -2.4463 3.75
head 7.301 -1.5443 1.07652
rclavicle -1.62631e-014 2.40032e-014
rhumerus -33.0624 -14.814 -78.6134
rradius 32.9543
rwrist -3.22122
rhand -8.91292 -52.1525
rfingers 7.12502
rthumb 17.0303 -81.426
lclavicle -1.62631e-014 2.40032e-014
lhumerus -26.9341 -2.83067 83.8036
lradius 26.8657
lwrist -0.587067
lhand -21.2718 -11.8003
lfingers 7.12502
lthumb 5.11192 18.118
rfemur -25.3025 5.5273 19.756
rtibia 14.1656
rfoot -22.3536 -6.81697
rtoes -14.4895
lfemur -30.3026 -9.79732 -21.8304
ltibia 24.6137
lfoot -11.508 -2.33406
ltoes -20.8585
133
root 16.5795 19.6453 20.7692 -155.486 -4.83915 177.51
lowerback -26.2381 -1.05633 -5.19805
upperback 0.271113 -0.0338153 -0.249397
thorax 15.1116 -0.522172 2.66307
lowerneck -3.45958 -0.242606 -0.55812
upperneck 22.0706 -2.72711 3.63665
head 7.37862 -1.67136 1.0009
rclavicle 6.58474e-015 6.60959e-015
rhumerus -33.067 -14.8926 -78.4641
rradius 32.9583
rwrist -2.98829
rhand -8.84486 -51.6349
rfingers 7.12502
rthumb 17.0958 -80.9027
lclavicle 6.58474e-015 6.60959e-015
lhumerus -26.7919 -2.63228 83.7094
lradius 26.741
lwrist -0.818032
lhand -21.3024 -11.9274
lfingers 7.12502
lthumb 5.08237 17.9917
rfemur -25.664 5.58097 19.7317
rtibia 14.4798
rfoot -22.2644 -7.03908
rtoes -15.6005
lfemur -31.236 -9.38545 -21.8816
ltibia 25.9466
lfoot -11.2745 -2.84898
ltoes -19.8234
134
root 16.5753 19.6475 20.7821 -155.444 -5.1597 177.432
lowerback -26.0432 -1.0854 -5.07398
upperback 0.343505 -0.106637 -0.254014
thorax 15.0953 -0.540095 2.5591
lowerneck -3.59485 -0.284019 -0.30647
upperneck 22.0192 -2.72587 3.36139
head 7.38027 -1.66196 0.868526
rclavicle 2.54693e-015 -9.6659e-015
rhumerus -32.868 -14.8813 -78.4714
rradius 33.0045
rwrist -3.41007
rhand -9.11675 -52.772
rfingers 7.12502
rthumb 16.834 -82.0623
lclavicle 2.54693e-015 -9.6659e-015
lhumerus -26.6085 -2.58096 83.5954
lradius 26.642
lwrist -0.983932
lhand -21.2105 -12.2704
lfingers 7.12502
lthumb 5.17106 17.6465
rfemur -25.7692 5.54681 19.6614
rtibia 14.564
rfoot -22.1337 -7.46504
rtoes -17.2463
lfemur -32.1115 -9.14112 -21.9651
ltibia 27.3254
lfoot -10.955 -3.49479
ltoes -18.7609
135
root 16.5717 19.6518 20.7907 -155.498 -5.53285 177.241
lowerback -25.8167 -1.15187 -5.14549
upperback 0.455035 -0.166157 -0.256737
thorax 15.108 -0.567452 2.57548
lowerneck -3.19226 0.0302889 -0.459255
upperneck 22.0186 -2.30909 3.44582
head 7.3006 -1.48153 0.955078
rclavicle 1.3508e-014 -1.53437e-014
rhumerus -32.7267 -14.9381 -78.3566
rradius 32.9558
rwrist -3.74189
rhand -8.52012 -54.4969
rfingers 7.12502
rthumb 17.4083 -83.7374
lclavicle 1.3508e-014 -1.53437e-014
lhumerus -26.5678 -2.61005 83.5714
lradius 26.763
lwrist -0.967185
lhand -21.1796 -12.1795
lfingers 7.12502
lthumb 5.20098 17.7367
rfemur -25.6817 5.42201 19.4882
rtibia 14.6158
rfoot -22.1861 -7.80496
rtoes -18.0419
lfemur -32.8669 -8.98146 -22.1741
ltibia 28.8135
lfoot -10.6229 -4.19441
ltoes -18.3168
136
root 16.5654 19.6573 20.7976 -155.649 -5.91094 177.053
lowerback -25.438 -1.20543 -5.1615
upperback 0.535883 -0.234342 -0.28122
thorax 14.9971 -0.590087 2.53191
lowerneck -3.30977 -0.0875753 -0.332592
upperneck 22.2741 -2.50471 3.32849
head 7.40811 -1.5798 0.878646
rclavicle 1.09615e-014 2.30419e-014
rhumerus -32.8702 -14.9266 -78.1853
rradius 32.9634
rwrist -3.60687
rhand -8.86706 -51.5448
rfingers 7.12502
rthumb 17.0744 -80.8145
lclavicle 1.09615e-014 2.30419e-014
lhumerus -26.6473 -2.70791 83.5241
lradius 26.8794
lwrist -0.778644
lhand -21.1593 -11.9876
lfingers 7.12502
lthumb 5.22049 17.9281
rfemur -25.4421 5.21248 19.3342
rtibia 14.5776
rfoot -22.1377 -8.03899
rtoes -18.4999
lfemur -33.5744 -8.73477 -22.4226
ltibia 30.3633
lfoot -10.2713 -5.0514
ltoes -17.5376
137
root 16.5579 19.66 20.8085 -155.704 -6.27967 177.015
lowerback -25.1329 -1.22839 -5.02643
upperback 0.577641 -0.317481 -0.236349
thorax 14.8804 -0.612029 2.47689
lowerneck -3.39783 -0.231488 -0.399272
upperneck 22.2458 -2.71231 3.44114
head 7.42119 -1.66989 0.911194
rclavicle 1.18028e-014 -1.75179e-014
rhumerus -33.0419 -14.6961 -78.0461
rradius 33.1345
rwrist -3.81579
rhand -9.00636 -52.2207
rfingers 7.12502
rthumb 16.9403 -81.5019
lclavicle 1.18028e-014 -1.75179e-014
lhumerus -26.6743 -2.74389 83.4804
lradius 26.8695
lwrist -0.813125
lhand -21.1482 -12.2131
lfingers 7.12502
lthumb 5.23128 17.7023
rfemur -25.3683 5.17715 19.2879
rtibia 14.5698
rfoot -22.0668 -8.29554
rtoes -18.683
lfemur -34.444 -8.42249 -22.4715
ltibia 31.8505
lfoot -9.90006 -5.84446
ltoes -17.2084
138
root 16.5492 19.6604 20.8192 -155.668 -6.59292 176.988
lowerback -24.9325 -1.23549 -4.89953
upperback 0.589579 -0.378734 -0.169169
thorax 14.7852 -0.628085 2.46038
lowerneck -3.1737 -0.290845 -0.750497
upperneck 22.3277 -2.85649 3.71851
head 7.41819 -1.75825 1.05146
rclavicle -1.31819e-014 1.73937e-015
rhumerus -33.0982 -14.3944 -77.9637
rradius 33.2304
rwrist -4.16536
rhand -9.47253 -53.6041
rfingers 7.12502
rthumb 16.4915 -82.9232
lclavicle -1.31819e-014 1.73937e-015
lhumerus -26.7395 -2.77617 83.4747
lradius 26.9153
lwrist -0.868299
lhand -21.3106 -12.3701
lfingers 7.12502
lthumb 5.07445 17.5491
rfemur -25.4496 5.24442 19.2073
rtibia 14.6642
rfoot -22.1285 -8.6243
rtoes -18.5776
lfemur -35.3672 -8.10841 -22.4852
ltibia 33.3459
lfoot -9.50552 -6.55507
ltoes -18.6015
139
root 16.5403 19.66 20.8302 -155.573 -6.88541 176.922
lowerback -24.7673 -1.24038 -4.78805
upperback 0.5999 -0.426508 -0.13735
thorax 14.7066 -0.638658 2.41657
lowerneck -2.9817 -0.277169 -0.929381
upperneck 22.471 -2.8776 3.78469
head 7.43408 -1.79106 1.10223
rclavicle 2.64384e-014 -3.27995e-015
rhumerus -33.0833 -14.1316 -77.9228
rradius 33.1683
rwrist -4.07552
rhand -9.8284 -54.8904
rfingers 7.12502
rthumb 16.1489 -84.2377
lclavicle 2.64384e-014 -3.27995e-015
lhumerus -26.7813 -2.93772 83.5056
lradius 27.0268
lwrist -0.625695
lhand -21.4744 -12.134
lfingers 7.12502
lthumb 4.91625 17.789
rfemur -25.6138 5.04875 19.1515
rtibia 14.8328
rfoot -22.135 -8.83356
rtoes -19.0304
lfemur -36.4015 -7.77629 -22.5266
ltibia 34.9758
lfoot -9.14155 -7.3573
ltoes -21.1187
140
root 16.5309 19.6577 20.8447 -155.374 -7.19797 176.906
lowerback -24.6691 -1.23187 -4.5982
upperback 0.575271 -0.479152 -0.114713
thorax 14.6235 -0.646169 2.31497
lowerneck -2.88635 -0.169392 -1.04015
upperneck 22.266 -2.71307 3.96354
head 7.34784 -1.6998 1.19378
rclavicle 2.86498e-014 -8.94531e-016
rhumerus -33.0679 -13.8981 -77.8738
rradius 33.1508
rwrist -3.997
rhand -9.88966 -55.3988
rfingers 7.12502
rthumb 16.0899 -84.7508
lclavicle 2.86498e-014 -8.94531e-016
lhumerus -26.7996 -2.87456 83.4681
lradius 27.1238
lwrist -0.523664
lhand -21.2109 -11.9865
lfingers 7.12502
lthumb 5.17068 17.9304
rfemur -26.0566 4.84354 19.1629
rtibia 15.3082
rfoot -22.1757 -9.05263
rtoes -19.6991
lfemur -37.6376 -7.51515 -22.4694
ltibia 36.5963
lfoot -8.63676 -8.17577
ltoes -22.0263
141
root 16.5155 19.6697 20.8416 -155.914 -7.40903 176.895
lowerback -24.0655 -1.16855 -4.38861
upperback 0.772541 -0.45491 -0.112817
thorax 14.511 -0.608392 2.20971
lowerneck -2.72179 0.00440832 -1.14068
upperneck 21.9748 -2.44793 4.1593
head 7.21771 -1.55737 1.29645
rclavicle -8.62228e-015 4.07509e-015
rhumerus -33.0969 -13.9346 -77.6489
rradius 33.0728
rwrist -3.60815
rhand -9.92932 -53.9428
rfingers 7.12502
rthumb 16.0517 -83.2979
lclavicle -8.62228e-015 4.07509e-015
lhumerus -26.8532 -2.63913 83.3823
lradius 27.1732
lwrist -0.643123
lhand -21.0033 -12.0305
lfingers 7.12502
lthumb 5.37121 17.8815
rfemur -25.6888 4.8744 19.1703
rtibia 15.9293
rfoot -22.4895 -9.32012
rtoes -19.9323
lfemur -37.7341 -7.26626 -22.5172
ltibia 37.6905
lfoot -8.0384 -8.86897
ltoes -21.9997
142
root 16.5074 19.6627 20.8558 -155.523 -7.701 176.761
lowerback -24.1328 -1.23409 -4.38866
upperback 0.686621 -0.551555 -0.0874749
thorax 14.4543 -0.653812 2.20361
lowerneck -2.71601 0.125807 -1.10953
upperneck 22.221 -2.296 4.02557
head 7.29121 -1.50113 1.25742
rclavicle 5.8393e-015 8.64713e-015
rhumerus -33.0954 -14.2807 -77.1963
rradius 32.671
rwrist -2.57944
rhand -9.95956 -49.3121
rfingers 7.12502
rthumb 16.0226 -78.6696
lclavicle 5.8393e-015 8.64713e-015
lhumerus -26.9475 -2.47163 83.3238
lradius 27.1927
lwrist -0.8382
lhand -21.1943 -11.8113
lfingers 7.12502
lthumb 5.18675 18.1052
rfemur -26.0227 4.68101 18.9781
rtibia 15.6607
rfoot -22.2577 -9.4724
rtoes -20.0769
lfemur -39.1487 -7.08847 -22.4927
ltibia 39.2425
lfoot -7.62866 -9.5816
ltoes -22.1607
